<svg width="20" height="20" viewBox="0 0 20 20" fill="none" xmlns="http://www.w3.org/2000/svg">
<mask id="path-1-inside-1_577_2156" fill="white">
<path d="M16 16C14.89 16 14 16.89 14 18C14 18.5304 14.2107 19.0391 14.5858 19.4142C14.9609 19.7893 15.4696 20 16 20C16.5304 20 17.0391 19.7893 17.4142 19.4142C17.7893 19.0391 18 18.5304 18 18C18 17.4696 17.7893 16.9609 17.4142 16.5858C17.0391 16.2107 16.5304 16 16 16ZM0 0V2H2L5.6 9.59L4.24 12.04C4.09 12.32 4 12.65 4 13C4 13.5304 4.21071 14.0391 4.58579 14.4142C4.96086 14.7893 5.46957 15 6 15H18V13H6.42C6.3537 13 6.29011 12.9737 6.24322 12.9268C6.19634 12.8799 6.17 12.8163 6.17 12.75C6.17 12.7 6.18 12.66 6.2 12.63L7.1 11H14.55C15.3 11 15.96 10.58 16.3 9.97L19.88 3.5C19.95 3.34 20 3.17 20 3C20 2.73478 19.8946 2.48043 19.7071 2.29289C19.5196 2.10536 19.2652 2 19 2H4.21L3.27 0M6 16C4.89 16 4 16.89 4 18C4 18.5304 4.21071 19.0391 4.58579 19.4142C4.96086 19.7893 5.46957 20 6 20C6.53043 20 7.03914 19.7893 7.41421 19.4142C7.78929 19.0391 8 18.5304 8 18C8 17.4696 7.78929 16.9609 7.41421 16.5858C7.03914 16.2107 6.53043 16 6 16Z"/>
</mask>
<path d="M16 16C14.89 16 14 16.89 14 18C14 18.5304 14.2107 19.0391 14.5858 19.4142C14.9609 19.7893 15.4696 20 16 20C16.5304 20 17.0391 19.7893 17.4142 19.4142C17.7893 19.0391 18 18.5304 18 18C18 17.4696 17.7893 16.9609 17.4142 16.5858C17.0391 16.2107 16.5304 16 16 16ZM0 0V2H2L5.6 9.59L4.24 12.04C4.09 12.32 4 12.65 4 13C4 13.5304 4.21071 14.0391 4.58579 14.4142C4.96086 14.7893 5.46957 15 6 15H18V13H6.42C6.3537 13 6.29011 12.9737 6.24322 12.9268C6.19634 12.8799 6.17 12.8163 6.17 12.75C6.17 12.7 6.18 12.66 6.2 12.63L7.1 11H14.55C15.3 11 15.96 10.58 16.3 9.97L19.88 3.5C19.95 3.34 20 3.17 20 3C20 2.73478 19.8946 2.48043 19.7071 2.29289C19.5196 2.10536 19.2652 2 19 2H4.21L3.27 0M6 16C4.89 16 4 16.89 4 18C4 18.5304 4.21071 19.0391 4.58579 19.4142C4.96086 19.7893 5.46957 20 6 20C6.53043 20 7.03914 19.7893 7.41421 19.4142C7.78929 19.0391 8 18.5304 8 18C8 17.4696 7.78929 16.9609 7.41421 16.5858C7.03914 16.2107 6.53043 16 6 16Z" fill="#0F172A"/>
<path d="M0 2H-0.5V2.5H0V2ZM2 2L2.45176 1.78573L2.31624 1.5H2V2ZM5.6 9.59L6.03716 9.83267L6.16191 9.60795L6.05176 9.37573L5.6 9.59ZM4.24 12.04L3.80279 11.7973L3.79926 11.8039L4.24 12.04ZM18 15V15.5H18.5V15H18ZM18 13H18.5V12.5H18V13ZM6.2 12.63L6.61602 12.9074L6.62761 12.89L6.63771 12.8717L6.2 12.63ZM7.1 11V10.5H6.80492L6.66229 10.7583L7.1 11ZM16.3 9.97L16.7367 10.2134L16.7375 10.2121L16.3 9.97ZM19.88 3.5L20.3175 3.74207L20.3288 3.72172L20.3381 3.70041L19.88 3.5ZM4.21 2L3.75749 2.21268L3.89253 2.5H4.21V2ZM4 18H3.5H4ZM16 16V15.5C14.6139 15.5 13.5 16.6139 13.5 18H14H14.5C14.5 17.1661 15.1661 16.5 16 16.5V16ZM14 18H13.5C13.5 18.663 13.7634 19.2989 14.2322 19.7678L14.5858 19.4142L14.9393 19.0607C14.658 18.7794 14.5 18.3978 14.5 18H14ZM14.5858 19.4142L14.2322 19.7678C14.7011 20.2366 15.337 20.5 16 20.5V20V19.5C15.6022 19.5 15.2206 19.342 14.9393 19.0607L14.5858 19.4142ZM16 20V20.5C16.663 20.5 17.2989 20.2366 17.7678 19.7678L17.4142 19.4142L17.0607 19.0607C16.7794 19.342 16.3978 19.5 16 19.5V20ZM17.4142 19.4142L17.7678 19.7678C18.2366 19.2989 18.5 18.663 18.5 18H18H17.5C17.5 18.3978 17.342 18.7794 17.0607 19.0607L17.4142 19.4142ZM18 18H18.5C18.5 17.337 18.2366 16.7011 17.7678 16.2322L17.4142 16.5858L17.0607 16.9393C17.342 17.2206 17.5 17.6022 17.5 18H18ZM17.4142 16.5858L17.7678 16.2322C17.2989 15.7634 16.663 15.5 16 15.5V16V16.5C16.3978 16.5 16.7794 16.658 17.0607 16.9393L17.4142 16.5858ZM0 0H-0.5V2H0H0.5V0H0ZM0 2V2.5H2V2V1.5H0V2ZM2 2L1.54824 2.21427L5.14824 9.80427L5.6 9.59L6.05176 9.37573L2.45176 1.78573L2 2ZM5.6 9.59L5.16284 9.34733L3.80284 11.7973L4.24 12.04L4.67716 12.2827L6.03716 9.83267L5.6 9.59ZM4.24 12.04L3.79926 11.8039C3.61184 12.1537 3.5 12.5645 3.5 13H4H4.5C4.5 12.7355 4.56816 12.4863 4.68074 12.2761L4.24 12.04ZM4 13H3.5C3.5 13.663 3.76339 14.2989 4.23223 14.7678L4.58579 14.4142L4.93934 14.0607C4.65804 13.7794 4.5 13.3978 4.5 13H4ZM4.58579 14.4142L4.23223 14.7678C4.70107 15.2366 5.33696 15.5 6 15.5V15V14.5C5.60218 14.5 5.22064 14.342 4.93934 14.0607L4.58579 14.4142ZM6 15V15.5H18V15V14.5H6V15ZM18 15H18.5V13H18H17.5V15H18ZM18 13V12.5H6.42V13V13.5H18V13ZM6.42 13V12.5C6.4863 12.5 6.54989 12.5263 6.59678 12.5732L6.24322 12.9268L5.88967 13.2803C6.03032 13.421 6.22109 13.5 6.42 13.5V13ZM6.24322 12.9268L6.59678 12.5732C6.64366 12.6201 6.67 12.6837 6.67 12.75H6.17H5.67C5.67 12.9489 5.74902 13.1397 5.88967 13.2803L6.24322 12.9268ZM6.17 12.75H6.67C6.67 12.7618 6.66818 12.8291 6.61602 12.9074L6.2 12.63L5.78397 12.3527C5.69182 12.4909 5.67 12.6382 5.67 12.75H6.17ZM6.2 12.63L6.63771 12.8717L7.53771 11.2417L7.1 11L6.66229 10.7583L5.76229 12.3883L6.2 12.63ZM7.1 11V11.5H14.55V11V10.5H7.1V11ZM14.55 11V11.5C15.4894 11.5 16.3124 10.9747 16.7367 10.2134L16.3 9.97L15.8633 9.72657C15.6076 10.1853 15.1106 10.5 14.55 10.5V11ZM16.3 9.97L16.7375 10.2121L20.3175 3.74207L19.88 3.5L19.4425 3.25793L15.8625 9.72793L16.3 9.97ZM19.88 3.5L20.3381 3.70041C20.423 3.50626 20.5 3.26486 20.5 3H20H19.5C19.5 3.07514 19.477 3.17374 19.4219 3.29959L19.88 3.5ZM20 3H20.5C20.5 2.60218 20.342 2.22065 20.0607 1.93934L19.7071 2.29289L19.3536 2.64645C19.4473 2.74021 19.5 2.86739 19.5 3H20ZM19.7071 2.29289L20.0607 1.93934C19.7794 1.65804 19.3978 1.5 19 1.5V2V2.5C19.1326 2.5 19.2598 2.55268 19.3536 2.64645L19.7071 2.29289ZM19 2V1.5H4.21V2V2.5H19V2ZM4.21 2L4.66251 1.78732L3.72251 -0.212681L3.27 0L2.81749 0.212681L3.75749 2.21268L4.21 2ZM6 16V15.5C4.61386 15.5 3.5 16.6139 3.5 18H4H4.5C4.5 17.1661 5.16614 16.5 6 16.5V16ZM4 18H3.5C3.5 18.663 3.76339 19.2989 4.23223 19.7678L4.58579 19.4142L4.93934 19.0607C4.65804 18.7794 4.5 18.3978 4.5 18H4ZM4.58579 19.4142L4.23223 19.7678C4.70107 20.2366 5.33696 20.5 6 20.5V20V19.5C5.60218 19.5 5.22064 19.342 4.93934 19.0607L4.58579 19.4142ZM6 20V20.5C6.66304 20.5 7.29893 20.2366 7.76777 19.7678L7.41421 19.4142L7.06066 19.0607C6.77935 19.342 6.39782 19.5 6 19.5V20ZM7.41421 19.4142L7.76777 19.7678C8.23661 19.2989 8.5 18.663 8.5 18H8H7.5C7.5 18.3978 7.34196 18.7794 7.06066 19.0607L7.41421 19.4142ZM8 18H8.5C8.5 17.337 8.23661 16.7011 7.76777 16.2322L7.41421 16.5858L7.06066 16.9393C7.34196 17.2206 7.5 17.6022 7.5 18H8ZM7.41421 16.5858L7.76777 16.2322C7.29893 15.7634 6.66304 15.5 6 15.5V16V16.5C6.39782 16.5 6.77935 16.658 7.06066 16.9393L7.41421 16.5858Z" fill="black" mask="url(#path-1-inside-1_577_2156)"/>
</svg>
